# xmcd
#
# Track frame offsets: 
#        150
#        15113
#        32609
#        46024
#        59650
#        75047
#        88545
#        111187
#        129624
#        141169
#
# Disc length: 2068 seconds
#
# Revision: 0
# Processed by: cddbd v1.5.2PL0 Copyright (c) Steve Scherf et al.
# Submitted via: ExactAudioCopy v0.99pb4
#
DISCID=6e08120a
DTITLE=Britta T. and Band - Some Things I Won' Regret
DYEAR=2012
DGENRE=Country
TTITLE0=You Can't Love Me Too Much
TTITLE1=The Crush
TTITLE2=He Rocks
TTITLE3=Patels Of A Rose
TTITLE4=Something I Won't Regret
TTITLE5=Shame Shame Shame
TTITLE6=I Get It Done Alright
TTITLE7=Between Dreams
TTITLE8=It's So Easy
TTITLE9=Burning Love
EXTD=
EXTT0=
EXTT1=
EXTT2=
EXTT3=
EXTT4=
EXTT5=
EXTT6=
EXTT7=
EXTT8=
EXTT9=
PLAYORDER=
